<mxfile host="Electron" agent="Mozilla/5.0 (Windows NT 10.0; Win64; x64) AppleWebKit/537.36 (KHTML, like Gecko) draw.io/26.2.2 Chrome/134.0.6998.178 Electron/35.1.2 Safari/537.36" version="26.2.2">
  <diagram id="C5RBs43oDa-KdzZeNtuy" name="Page-1">
    <mxGraphModel dx="676" dy="465" grid="1" gridSize="10" guides="1" tooltips="1" connect="1" arrows="1" fold="1" page="1" pageScale="1" pageWidth="827" pageHeight="1169" math="0" shadow="0">
      <root>
        <mxCell id="WIyWlLk6GJQsqaUBKTNV-0" />
        <mxCell id="WIyWlLk6GJQsqaUBKTNV-1" parent="WIyWlLk6GJQsqaUBKTNV-0" />
        <mxCell id="r34-AQYQnjeJ5e2I9672-11" value="" style="edgeStyle=orthogonalEdgeStyle;rounded=0;orthogonalLoop=1;jettySize=auto;html=1;" edge="1" parent="WIyWlLk6GJQsqaUBKTNV-1" source="r34-AQYQnjeJ5e2I9672-1" target="r34-AQYQnjeJ5e2I9672-10">
          <mxGeometry relative="1" as="geometry" />
        </mxCell>
        <mxCell id="r34-AQYQnjeJ5e2I9672-1" value="Файл запуска&lt;div&gt;run&lt;span style=&quot;background-color: transparent; color: light-dark(rgb(0, 0, 0), rgb(255, 255, 255));&quot;&gt;.py&lt;/span&gt;&lt;/div&gt;" style="rounded=1;whiteSpace=wrap;html=1;arcSize=11;fillColor=#6d8764;fontColor=#ffffff;strokeColor=#3A5431;" vertex="1" parent="WIyWlLk6GJQsqaUBKTNV-1">
          <mxGeometry x="40" y="40" width="120" height="60" as="geometry" />
        </mxCell>
        <mxCell id="r34-AQYQnjeJ5e2I9672-7" value="Структура криптовалютного торгового бота на Python. Не для реального заработка." style="text;html=1;align=center;verticalAlign=middle;whiteSpace=wrap;rounded=0;" vertex="1" parent="WIyWlLk6GJQsqaUBKTNV-1">
          <mxGeometry x="40" width="750" height="30" as="geometry" />
        </mxCell>
        <mxCell id="r34-AQYQnjeJ5e2I9672-20" style="edgeStyle=orthogonalEdgeStyle;rounded=0;orthogonalLoop=1;jettySize=auto;html=1;entryX=0.5;entryY=0;entryDx=0;entryDy=0;" edge="1" parent="WIyWlLk6GJQsqaUBKTNV-1" source="r34-AQYQnjeJ5e2I9672-10" target="r34-AQYQnjeJ5e2I9672-19">
          <mxGeometry relative="1" as="geometry" />
        </mxCell>
        <mxCell id="r34-AQYQnjeJ5e2I9672-10" value="Консольная настройка" style="ellipse;whiteSpace=wrap;html=1;fillColor=#76608a;fontColor=#ffffff;strokeColor=#432D57;" vertex="1" parent="WIyWlLk6GJQsqaUBKTNV-1">
          <mxGeometry x="225" y="40" width="90" height="60" as="geometry" />
        </mxCell>
        <mxCell id="r34-AQYQnjeJ5e2I9672-29" style="edgeStyle=orthogonalEdgeStyle;rounded=0;orthogonalLoop=1;jettySize=auto;html=1;entryX=0.5;entryY=0;entryDx=0;entryDy=0;" edge="1" parent="WIyWlLk6GJQsqaUBKTNV-1" source="r34-AQYQnjeJ5e2I9672-12" target="r34-AQYQnjeJ5e2I9672-14">
          <mxGeometry relative="1" as="geometry" />
        </mxCell>
        <mxCell id="r34-AQYQnjeJ5e2I9672-30" style="edgeStyle=orthogonalEdgeStyle;rounded=0;orthogonalLoop=1;jettySize=auto;html=1;entryX=0.5;entryY=0;entryDx=0;entryDy=0;" edge="1" parent="WIyWlLk6GJQsqaUBKTNV-1" source="r34-AQYQnjeJ5e2I9672-12" target="r34-AQYQnjeJ5e2I9672-24">
          <mxGeometry relative="1" as="geometry" />
        </mxCell>
        <mxCell id="r34-AQYQnjeJ5e2I9672-12" value="Установка начальной даты, с которой бот начнёт торги" style="rounded=1;whiteSpace=wrap;html=1;fillColor=#76608a;fontColor=#ffffff;strokeColor=#432D57;" vertex="1" parent="WIyWlLk6GJQsqaUBKTNV-1">
          <mxGeometry x="205" y="200" width="130" height="60" as="geometry" />
        </mxCell>
        <mxCell id="r34-AQYQnjeJ5e2I9672-14" value="Установка начального депозита, USDT" style="rounded=1;whiteSpace=wrap;html=1;fillColor=#76608a;strokeColor=#432D57;fontColor=#ffffff;" vertex="1" parent="WIyWlLk6GJQsqaUBKTNV-1">
          <mxGeometry x="205" y="280" width="130" height="60" as="geometry" />
        </mxCell>
        <mxCell id="r34-AQYQnjeJ5e2I9672-28" style="edgeStyle=orthogonalEdgeStyle;rounded=0;orthogonalLoop=1;jettySize=auto;html=1;entryX=0.5;entryY=0;entryDx=0;entryDy=0;" edge="1" parent="WIyWlLk6GJQsqaUBKTNV-1" source="r34-AQYQnjeJ5e2I9672-19" target="r34-AQYQnjeJ5e2I9672-12">
          <mxGeometry relative="1" as="geometry" />
        </mxCell>
        <mxCell id="r34-AQYQnjeJ5e2I9672-31" style="edgeStyle=orthogonalEdgeStyle;rounded=0;orthogonalLoop=1;jettySize=auto;html=1;entryX=0.25;entryY=0;entryDx=0;entryDy=0;" edge="1" parent="WIyWlLk6GJQsqaUBKTNV-1" source="r34-AQYQnjeJ5e2I9672-19" target="r34-AQYQnjeJ5e2I9672-24">
          <mxGeometry relative="1" as="geometry" />
        </mxCell>
        <mxCell id="r34-AQYQnjeJ5e2I9672-19" value="Установка тикера. Например, ETHUSDT, BTCUSDT" style="rounded=1;whiteSpace=wrap;html=1;fillColor=#76608a;fontColor=#ffffff;strokeColor=#432D57;" vertex="1" parent="WIyWlLk6GJQsqaUBKTNV-1">
          <mxGeometry x="200" y="120" width="140" height="60" as="geometry" />
        </mxCell>
        <mxCell id="r34-AQYQnjeJ5e2I9672-42" style="edgeStyle=orthogonalEdgeStyle;rounded=0;orthogonalLoop=1;jettySize=auto;html=1;" edge="1" parent="WIyWlLk6GJQsqaUBKTNV-1" source="r34-AQYQnjeJ5e2I9672-24" target="r34-AQYQnjeJ5e2I9672-41">
          <mxGeometry relative="1" as="geometry">
            <Array as="points">
              <mxPoint x="460" y="360" />
            </Array>
          </mxGeometry>
        </mxCell>
        <mxCell id="r34-AQYQnjeJ5e2I9672-24" value="Сбор данных ценовой истории для этой торговой сессии" style="rounded=1;whiteSpace=wrap;html=1;fillColor=#647687;fontColor=#ffffff;strokeColor=#314354;" vertex="1" parent="WIyWlLk6GJQsqaUBKTNV-1">
          <mxGeometry x="40" y="330" width="140" height="60" as="geometry" />
        </mxCell>
        <mxCell id="r34-AQYQnjeJ5e2I9672-37" style="edgeStyle=orthogonalEdgeStyle;rounded=0;orthogonalLoop=1;jettySize=auto;html=1;entryX=0;entryY=0.5;entryDx=0;entryDy=0;exitX=0.991;exitY=0.116;exitDx=0;exitDy=0;exitPerimeter=0;" edge="1" parent="WIyWlLk6GJQsqaUBKTNV-1" source="r34-AQYQnjeJ5e2I9672-32" target="r34-AQYQnjeJ5e2I9672-36">
          <mxGeometry relative="1" as="geometry" />
        </mxCell>
        <mxCell id="r34-AQYQnjeJ5e2I9672-32" value="&lt;div&gt;Конец настройки&lt;/div&gt;" style="rounded=1;whiteSpace=wrap;html=1;fillColor=#647687;fontColor=#ffffff;strokeColor=#314354;align=center;" vertex="1" parent="WIyWlLk6GJQsqaUBKTNV-1">
          <mxGeometry x="360" y="40" width="60" height="300" as="geometry" />
        </mxCell>
        <mxCell id="r34-AQYQnjeJ5e2I9672-35" style="edgeStyle=orthogonalEdgeStyle;rounded=0;orthogonalLoop=1;jettySize=auto;html=1;entryX=0.016;entryY=0.9;entryDx=0;entryDy=0;entryPerimeter=0;" edge="1" parent="WIyWlLk6GJQsqaUBKTNV-1" source="r34-AQYQnjeJ5e2I9672-14" target="r34-AQYQnjeJ5e2I9672-32">
          <mxGeometry relative="1" as="geometry" />
        </mxCell>
        <mxCell id="r34-AQYQnjeJ5e2I9672-40" style="edgeStyle=orthogonalEdgeStyle;rounded=0;orthogonalLoop=1;jettySize=auto;html=1;" edge="1" parent="WIyWlLk6GJQsqaUBKTNV-1" source="r34-AQYQnjeJ5e2I9672-36" target="r34-AQYQnjeJ5e2I9672-38">
          <mxGeometry relative="1" as="geometry" />
        </mxCell>
        <mxCell id="r34-AQYQnjeJ5e2I9672-36" value="Начало работы бота" style="ellipse;whiteSpace=wrap;html=1;fillColor=#a0522d;fontColor=#ffffff;strokeColor=#6D1F00;" vertex="1" parent="WIyWlLk6GJQsqaUBKTNV-1">
          <mxGeometry x="560" y="40" width="110" height="70" as="geometry" />
        </mxCell>
        <mxCell id="r34-AQYQnjeJ5e2I9672-44" value="" style="edgeStyle=orthogonalEdgeStyle;rounded=0;orthogonalLoop=1;jettySize=auto;html=1;" edge="1" parent="WIyWlLk6GJQsqaUBKTNV-1" source="r34-AQYQnjeJ5e2I9672-38" target="r34-AQYQnjeJ5e2I9672-41">
          <mxGeometry relative="1" as="geometry" />
        </mxCell>
        <mxCell id="r34-AQYQnjeJ5e2I9672-38" value="Запуск симуляции рынка, где торгует бот, с начальной даты до настоящего момента с возможностью ускорения. Цены настоящие" style="rounded=1;whiteSpace=wrap;html=1;fillColor=#a0522d;fontColor=#ffffff;strokeColor=#6D1F00;" vertex="1" parent="WIyWlLk6GJQsqaUBKTNV-1">
          <mxGeometry x="440" y="125" width="350" height="50" as="geometry" />
        </mxCell>
        <mxCell id="r34-AQYQnjeJ5e2I9672-46" style="edgeStyle=orthogonalEdgeStyle;rounded=0;orthogonalLoop=1;jettySize=auto;html=1;entryX=0.5;entryY=0;entryDx=0;entryDy=0;exitX=0.298;exitY=0.997;exitDx=0;exitDy=0;exitPerimeter=0;" edge="1" parent="WIyWlLk6GJQsqaUBKTNV-1" source="r34-AQYQnjeJ5e2I9672-41" target="r34-AQYQnjeJ5e2I9672-45">
          <mxGeometry relative="1" as="geometry" />
        </mxCell>
        <mxCell id="r34-AQYQnjeJ5e2I9672-48" style="edgeStyle=orthogonalEdgeStyle;rounded=0;orthogonalLoop=1;jettySize=auto;html=1;entryX=0.5;entryY=0;entryDx=0;entryDy=0;exitX=0.709;exitY=0.997;exitDx=0;exitDy=0;exitPerimeter=0;" edge="1" parent="WIyWlLk6GJQsqaUBKTNV-1" source="r34-AQYQnjeJ5e2I9672-41" target="r34-AQYQnjeJ5e2I9672-47">
          <mxGeometry relative="1" as="geometry" />
        </mxCell>
        <mxCell id="r34-AQYQnjeJ5e2I9672-41" value="Некоторое время изучение ботом поведения рынка перед торговлей" style="rounded=1;whiteSpace=wrap;html=1;fillColor=#a0522d;fontColor=#ffffff;strokeColor=#6D1F00;" vertex="1" parent="WIyWlLk6GJQsqaUBKTNV-1">
          <mxGeometry x="440" y="190" width="350" height="40" as="geometry" />
        </mxCell>
        <mxCell id="r34-AQYQnjeJ5e2I9672-45" value="Обновление и/или стандартизация алгоритма (опционально)" style="rounded=1;whiteSpace=wrap;html=1;fillColor=#a0522d;fontColor=#ffffff;strokeColor=#6D1F00;" vertex="1" parent="WIyWlLk6GJQsqaUBKTNV-1">
          <mxGeometry x="480" y="250" width="135" height="60" as="geometry" />
        </mxCell>
        <mxCell id="r34-AQYQnjeJ5e2I9672-56" value="" style="edgeStyle=orthogonalEdgeStyle;rounded=0;orthogonalLoop=1;jettySize=auto;html=1;" edge="1" parent="WIyWlLk6GJQsqaUBKTNV-1" source="r34-AQYQnjeJ5e2I9672-47" target="r34-AQYQnjeJ5e2I9672-55">
          <mxGeometry relative="1" as="geometry">
            <Array as="points">
              <mxPoint x="710" y="320" />
              <mxPoint x="710" y="320" />
            </Array>
          </mxGeometry>
        </mxCell>
        <mxCell id="r34-AQYQnjeJ5e2I9672-47" value="Торговля до настоящего момента" style="rounded=1;whiteSpace=wrap;html=1;fillColor=#a0522d;strokeColor=#6D1F00;fontColor=#ffffff;" vertex="1" parent="WIyWlLk6GJQsqaUBKTNV-1">
          <mxGeometry x="630" y="250" width="160" height="60" as="geometry" />
        </mxCell>
        <mxCell id="r34-AQYQnjeJ5e2I9672-50" value="Сохранение результатов в .txt файл" style="rounded=1;whiteSpace=wrap;html=1;fillColor=#6d8764;fontColor=#ffffff;strokeColor=#3A5431;" vertex="1" parent="WIyWlLk6GJQsqaUBKTNV-1">
          <mxGeometry x="480" y="380" width="140" height="60" as="geometry" />
        </mxCell>
        <mxCell id="r34-AQYQnjeJ5e2I9672-51" value=".png визуализация стоимости портфеля на графике цена-время" style="rounded=1;whiteSpace=wrap;html=1;fillColor=#6d8764;fontColor=#ffffff;strokeColor=#3A5431;" vertex="1" parent="WIyWlLk6GJQsqaUBKTNV-1">
          <mxGeometry x="650" y="380" width="140" height="60" as="geometry" />
        </mxCell>
        <mxCell id="r34-AQYQnjeJ5e2I9672-58" style="edgeStyle=orthogonalEdgeStyle;rounded=0;orthogonalLoop=1;jettySize=auto;html=1;entryX=0.5;entryY=0;entryDx=0;entryDy=0;" edge="1" parent="WIyWlLk6GJQsqaUBKTNV-1" target="r34-AQYQnjeJ5e2I9672-50">
          <mxGeometry relative="1" as="geometry">
            <mxPoint x="550" y="360" as="sourcePoint" />
          </mxGeometry>
        </mxCell>
        <mxCell id="r34-AQYQnjeJ5e2I9672-59" style="edgeStyle=orthogonalEdgeStyle;rounded=0;orthogonalLoop=1;jettySize=auto;html=1;entryX=0.5;entryY=0;entryDx=0;entryDy=0;exitX=0.778;exitY=0.967;exitDx=0;exitDy=0;exitPerimeter=0;" edge="1" parent="WIyWlLk6GJQsqaUBKTNV-1" source="r34-AQYQnjeJ5e2I9672-55" target="r34-AQYQnjeJ5e2I9672-51">
          <mxGeometry relative="1" as="geometry" />
        </mxCell>
        <mxCell id="r34-AQYQnjeJ5e2I9672-55" value="Бот отторговался" style="rounded=1;whiteSpace=wrap;html=1;fillColor=#6d8764;fontColor=#ffffff;strokeColor=#3A5431;" vertex="1" parent="WIyWlLk6GJQsqaUBKTNV-1">
          <mxGeometry x="480" y="330" width="310" height="30" as="geometry" />
        </mxCell>
      </root>
    </mxGraphModel>
  </diagram>
</mxfile>
